<svg width="44" height="44" viewBox="0 0 44 44" fill="none" xmlns="http://www.w3.org/2000/svg">
<path d="M14.7988 22.1714C14.7988 21.8235 14.7164 21.5092 14.5516 21.2284C14.3868 20.9415 14.161 20.7157 13.8741 20.5509C13.5934 20.3861 13.279 20.3037 12.9311 20.3037H12.9128C12.5649 20.3037 12.2506 20.3861 11.9698 20.5509C11.6891 20.7157 11.4633 20.9415 11.2924 21.2284C11.1276 21.5092 11.0452 21.8235 11.0452 22.1714V22.1897C11.0452 22.5376 11.1276 22.8519 11.2924 23.1327C11.4633 23.4135 11.6891 23.6393 11.9698 23.8102C12.2506 23.975 12.5649 24.0574 12.9128 24.0574H12.9311C13.279 24.0574 13.5934 23.975 13.8741 23.8102C14.161 23.6393 14.3868 23.4135 14.5516 23.1327C14.7164 22.8519 14.7988 22.5376 14.7988 22.1897V22.1714ZM23.6429 22.1714C23.6429 21.8235 23.5604 21.5092 23.3956 21.2284C23.2308 20.9415 23.005 20.7157 22.7181 20.5509C22.4374 20.3861 22.1231 20.3037 21.7752 20.3037H21.7568C21.4089 20.3037 21.0946 20.3861 20.8138 20.5509C20.5331 20.7157 20.3073 20.9415 20.1364 21.2284C19.9716 21.5092 19.8892 21.8235 19.8892 22.1714V22.1897C19.8892 22.5376 19.9716 22.8519 20.1364 23.1327C20.3073 23.4135 20.5331 23.6393 20.8138 23.8102C21.0946 23.975 21.4089 24.0574 21.7568 24.0574H21.7752C22.1231 24.0574 22.4374 23.975 22.7181 23.8102C23.005 23.6393 23.2308 23.4135 23.3956 23.1327C23.5604 22.8519 23.6429 22.5376 23.6429 22.1897V22.1714ZM32.4869 22.1714C32.4869 21.8235 32.4044 21.5092 32.2396 21.2284C32.0749 20.9415 31.849 20.7157 31.5621 20.5509C31.2814 20.3861 30.967 20.3037 30.6191 20.3037H30.6009C30.2529 20.3037 29.9386 20.3861 29.6579 20.5509C29.3771 20.7157 29.1513 20.9415 28.9804 21.2284C28.8155 21.5092 28.7331 21.8235 28.7331 22.1714V22.1897C28.7331 22.5376 28.8155 22.8519 28.9804 23.1327C29.1513 23.4135 29.3771 23.6393 29.6579 23.8102C29.9386 23.975 30.2529 24.0574 30.6009 24.0574H30.6191C30.967 24.0574 31.2814 23.975 31.5621 23.8102C31.849 23.6393 32.0749 23.4135 32.2396 23.1327C32.4044 22.8519 32.4869 22.5376 32.4869 22.1897V22.1714Z" fill="white"/>
</svg>
