<svg width="18" height="4" viewBox="0 0 18 4" fill="none" xmlns="http://www.w3.org/2000/svg">
<path d="M3.03906 1.7373C3.03906 1.45898 2.97314 1.20752 2.84131 0.98291C2.70947 0.753418 2.52881 0.572754 2.29932 0.440918C2.07471 0.309082 1.82324 0.243164 1.54492 0.243164H1.53027C1.25195 0.243164 1.00049 0.309082 0.775879 0.440918C0.55127 0.572754 0.370605 0.753418 0.233887 0.98291C0.102051 1.20752 0.0361328 1.45898 0.0361328 1.7373V1.75195C0.0361328 2.03027 0.102051 2.28174 0.233887 2.50635C0.370605 2.73096 0.55127 2.91162 0.775879 3.04834C1.00049 3.18018 1.25195 3.24609 1.53027 3.24609H1.54492C1.82324 3.24609 2.07471 3.18018 2.29932 3.04834C2.52881 2.91162 2.70947 2.73096 2.84131 2.50635C2.97314 2.28174 3.03906 2.03027 3.03906 1.75195V1.7373ZM10.1143 1.7373C10.1143 1.45898 10.0483 1.20752 9.9165 0.98291C9.78467 0.753418 9.604 0.572754 9.37451 0.440918C9.1499 0.309082 8.89844 0.243164 8.62012 0.243164H8.60547C8.32715 0.243164 8.07568 0.309082 7.85107 0.440918C7.62646 0.572754 7.4458 0.753418 7.30908 0.98291C7.17725 1.20752 7.11133 1.45898 7.11133 1.7373V1.75195C7.11133 2.03027 7.17725 2.28174 7.30908 2.50635C7.4458 2.73096 7.62646 2.91162 7.85107 3.04834C8.07568 3.18018 8.32715 3.24609 8.60547 3.24609H8.62012C8.89844 3.24609 9.1499 3.18018 9.37451 3.04834C9.604 2.91162 9.78467 2.73096 9.9165 2.50635C10.0483 2.28174 10.1143 2.03027 10.1143 1.75195V1.7373ZM17.1895 1.7373C17.1895 1.45898 17.1235 1.20752 16.9917 0.98291C16.8599 0.753418 16.6792 0.572754 16.4497 0.440918C16.2251 0.309082 15.9736 0.243164 15.6953 0.243164H15.6807C15.4023 0.243164 15.1509 0.309082 14.9263 0.440918C14.7017 0.572754 14.521 0.753418 14.3843 0.98291C14.2524 1.20752 14.1865 1.45898 14.1865 1.7373V1.75195C14.1865 2.03027 14.2524 2.28174 14.3843 2.50635C14.521 2.73096 14.7017 2.91162 14.9263 3.04834C15.1509 3.18018 15.4023 3.24609 15.6807 3.24609H15.6953C15.9736 3.24609 16.2251 3.18018 16.4497 3.04834C16.6792 2.91162 16.8599 2.73096 16.9917 2.50635C17.1235 2.28174 17.1895 2.03027 17.1895 1.75195V1.7373Z" fill="white"/>
</svg>
