<svg width="22" height="24" viewBox="0 0 22 24" fill="none" xmlns="http://www.w3.org/2000/svg">
<path d="M12.3462 0H2.19593C0.983153 0 0 0.983153 0 2.19593V16.6068C0 17.8195 0.983153 18.8027 2.19593 18.8027H12.3462C13.559 18.8027 14.5422 17.8195 14.5422 16.6068V2.19593C14.5422 0.983153 13.559 0 12.3462 0Z" fill="white"/>
<path d="M18.9402 5.10822L8.92353 3.16119C7.73303 2.92978 6.6006 3.71099 6.39417 4.90608L3.95087 19.0512C3.74444 20.2462 4.54219 21.4026 5.73268 21.6341L15.7493 23.5811C16.9398 23.8125 18.0722 23.0313 18.2787 21.8362L20.722 7.69112C20.9284 6.49604 20.1307 5.33963 18.9402 5.10822Z" fill="white"/>
</svg>
