<svg width="27" height="24" viewBox="0 0 27 24" fill="none" xmlns="http://www.w3.org/2000/svg">
<path d="M13.08 24L18.54 9.6H21.06L26.52 24H24L22.74 20.34H16.92L15.6 24H13.08ZM17.64 18.24H21.96L19.86 12.3H19.74L17.64 18.24ZM3.6 20.4L1.92 18.72L7.98 12.66C7.22 11.82 6.5548 10.95 5.9844 10.05C5.414 9.15 4.9192 8.2 4.5 7.2H7.02C7.38 7.92 7.7652 8.57 8.1756 9.15C8.586 9.73 9.0808 10.34 9.66 10.98C10.54 10.02 11.27 9.0348 11.85 8.0244C12.43 7.014 12.92 5.9392 13.32 4.8H0V2.4H8.4V0H10.8V2.4H19.2V4.8H15.72C15.3 6.22 14.73 7.6 14.01 8.94C13.29 10.28 12.4 11.54 11.34 12.72L14.22 15.66L13.32 18.12L9.6 14.4L3.6 20.4Z" fill="#555555"/>
</svg>
